<?xml version="1.0" encoding="UTF-8"?>
<!-- Generator: Adobe Illustrator 19.1.0, SVG Export Plug-In . SVG Version: 6.00 Build 0)  -->
<svg version="1.1" id="Layer_1" xmlns="http://www.w3.org/2000/svg" xmlns:xlink="http://www.w3.org/1999/xlink" x="0px" y="0px" viewBox="100 -13 255.5 42" style="enable-background:new 100 -13 255.5 42;" xml:space="preserve">
<style type="text/css">
	.st0{fill:url(#SVGID_1_);}
	.st1{fill:#070808;}
	.st2{fill:#EFE826;}
	.st3{fill:url(#SVGID_2_);}
	.st4{fill:url(#SVGID_3_);}
	.st5{fill:url(#SVGID_4_);}
	.st6{fill:url(#SVGID_5_);}
	.st7{fill:url(#SVGID_6_);}
	.st8{fill:url(#SVGID_7_);}
	.st9{fill:url(#SVGID_8_);}
	.st10{opacity:0.9;}
	.st11{fill:#EEE823;}
	.st12{opacity:0.95;}
	.st13{fill:url(#SVGID_9_);}
	.st14{fill:url(#SVGID_10_);}
</style>
<linearGradient id="SVGID_1_" gradientUnits="userSpaceOnUse" x1="158.2292" y1="25.4069" x2="178.0562" y2="-8.9346">
	<stop offset="0" style="stop-color:#EC1C24"/>
	<stop offset="1" style="stop-color:#EB008B"/>
</linearGradient>
<path class="st0" d="M178.378-8.749c-2.067,0.276-6.984,0.803-6.984,0.803l-8.45,20.508l-4.292,11.359l0.397,1.438l0.14-0.173  l0.019,0.044l-0.001,0.741l4.78,0.011l14.498-32.006L178.378-8.749z"/>
<g>
	<path class="st1" d="M257.984,25.847v-1.102l12.264-15.709c1.516-1.929,2.48-3.445,3.032-4.547   c0.551-1.102,0.689-2.205,0.689-3.721c0-3.721-2.205-6.201-5.926-6.201c-3.445,0-5.925,2.756-6.477,6.752l-2.756-0.551   c0.276-2.618,1.24-4.685,2.894-6.339c1.791-1.791,3.721-2.48,6.339-2.48c5.236,0,8.957,3.307,8.957,8.819   c0,2.48-1.24,5.512-4.134,9.095L262.67,23.091h15.158v2.756L257.984,25.847L257.984,25.847z"/>
	<path class="st1" d="M293.813-7.915c3.721,0,6.615,1.516,8.544,4.685c1.929,3.032,2.894,7.304,2.894,12.54   s-0.965,9.371-2.894,12.54c-1.929,3.032-4.685,4.685-8.544,4.685c-3.721,0-6.752-1.516-8.682-4.685s-2.894-7.304-2.894-12.54   s0.965-9.371,2.894-12.54C287.198-6.399,289.954-7.915,293.813-7.915z M293.813-5.297c-2.618,0-4.685,1.24-6.201,3.996   c-1.516,2.618-2.205,6.201-2.205,10.473s0.689,7.855,2.205,10.473s3.583,3.996,6.201,3.996c2.618,0,4.685-1.24,6.201-3.996   c1.516-2.618,2.205-6.201,2.205-10.473S301.53,1.318,300.014-1.3C298.498-4.056,296.431-5.297,293.813-5.297z"/>
	<path class="st1" d="M319.031-7.639h0.689v33.486h-2.894V-2.541l-5.512,3.445v-3.583L319.031-7.639z"/>
	<path class="st1" d="M345.764,7.657c1.929,2.067,2.894,4.685,2.894,7.717s-0.965,5.788-2.894,7.717   c-1.929,2.067-4.41,3.169-7.579,3.169c-3.169,0-5.512-1.102-7.579-3.169c-1.929-2.205-2.894-4.685-2.894-7.717   c0-2.067,0.551-4.134,1.791-6.201l9.784-17.088h3.169l-7.441,13.229c0.689-0.551,1.791-0.827,3.169-0.827   C341.217,4.487,343.697,5.59,345.764,7.657z M332.811,21.299c1.378,1.516,3.169,2.205,5.236,2.205c2.067,0,3.858-0.689,5.236-2.205   c1.378-1.654,2.205-3.583,2.205-5.926c0-5.099-3.032-8.268-7.304-8.268s-7.303,3.307-7.303,8.268   C330.744,17.716,331.433,19.783,332.811,21.299z"/>
</g>
<g>
	<path class="st2" d="M204.324-3.651c2.343,1.877,3.583,4.962,3.583,8.985s-1.24,7.108-3.583,8.851   c-2.48,1.877-6.201,2.816-11.3,2.816h-2.067v8.981h-9.175V-6.601l1.78-2.682C188.936-9.283,202.12-5.528,204.324-3.651z    M199.094,9.691c1.24-1.207,2.888-2.613,2.888-4.893s-1.57-4.364-3.086-5.436c-1.378-0.939-2.84-0.867-6.009-0.867h-5.926v13.41   h6.752C197.021,11.771,197.991,10.898,199.094,9.691z"/>
</g>
<g>
	<path class="st2" d="M244.091,2.982c0,5.112-2.205,8.206-6.752,9.551l7.843,13.286h-6.752l-7.292-12.478h-6.89v12.642h-7.143   V-6.838l2.463-2.691c4.685,0,19.424,3.363,21.354,4.978C242.988-2.937,244.091-0.381,244.091,2.982z M237.063,7.287   c1.102-0.807,1.654-2.287,1.654-4.439c0-1.883-0.689-3.363-1.791-4.17c-1.102-0.807-3.169-1.076-5.788-1.076h-6.752V8.498h6.615   C233.893,8.632,235.96,8.229,237.063,7.287z"/>
</g>
<g>
	<path class="st2" d="M155.205,19.829l0.672-2.545l-0.339-4.83l-6.477-18.879c0,0-7.066-2.838-6.603-3.346   c-1.614,1.77-2.239,3.187-2.239,3.187L155.205,19.829z"/>
</g>
<g>
	<linearGradient id="SVGID_2_" gradientUnits="userSpaceOnUse" x1="180.3656" y1="14.305" x2="211.9183" y2="-3.912">
		<stop offset="0" style="stop-color:#EC1C24"/>
		<stop offset="1" style="stop-color:#EB008B"/>
	</linearGradient>
	<path class="st3" d="M210.396-5.468c2.343,1.929,3.583,5.099,3.583,9.233s-1.24,7.304-3.583,9.095   c-2.48,1.929-6.201,2.894-11.3,2.894h-6.201v10.229h-5.788V-8.5h11.713C204.195-8.5,208.192-7.397,210.396-5.468z M206.262,8.588   c1.24-1.24,1.791-3.032,1.791-5.374s-0.689-3.996-2.205-5.099c-1.378-0.965-3.721-1.378-6.89-1.378h-5.926v13.78h6.752   C203.093,10.379,205.16,9.828,206.262,8.588z"/>
</g>
<g>
	<linearGradient id="SVGID_3_" gradientUnits="userSpaceOnUse" x1="218.5688" y1="18.3812" x2="250.3878" y2="0.0105">
		<stop offset="0" style="stop-color:#EC1C24"/>
		<stop offset="1" style="stop-color:#EB008B"/>
	</linearGradient>
	<path class="st4" d="M249,0.408c0,5.345-2.515,8.869-7.063,10.275l7.745,14.935h-6.752l-7.845-13.873h-6.89v14.238h-5.236V-9.352   h11.713c4.685,0,8.336,0.391,9.892,1.415C247.188-6.438,249-3.109,249,0.408z M241.01,5.416c1.102-0.844,1.654-2.391,1.654-4.641   c0-1.969-0.689-3.516-1.791-4.36c-1.102-0.844-3.169-1.125-5.788-1.125h-6.752V6.682h6.615C237.84,6.822,239.907,6.4,241.01,5.416z   "/>
</g>
<g>
	<linearGradient id="SVGID_4_" gradientUnits="userSpaceOnUse" x1="148.246" y1="6.133" x2="157.518" y2="0.7798">
		<stop offset="0" style="stop-color:#EC1C24"/>
		<stop offset="1" style="stop-color:#EB008B"/>
	</linearGradient>
	<path class="st5" d="M159.423,11.517l-5.799-17.483l-2.644-2.046c-1.791-0.413-4.675-1.295-4.675-1.295l9.112,27.859   L159.423,11.517z"/>
</g>
<g>
	<linearGradient id="SVGID_5_" gradientUnits="userSpaceOnUse" x1="182.1388" y1="24.9621" x2="202.0185" y2="-9.4706">
		<stop offset="0" style="stop-color:#00A551"/>
		<stop offset="0.2415" style="stop-color:#00A885"/>
		<stop offset="0.4831" style="stop-color:#00AAB2"/>
		<stop offset="0.6987" style="stop-color:#00ACD3"/>
		<stop offset="0.8783" style="stop-color:#00ADE7"/>
		<stop offset="1" style="stop-color:#00ADEE"/>
	</linearGradient>
	<path class="st6" d="M207.195-6.333c2.343,1.877,3.583,4.962,3.583,8.985s-1.24,7.108-3.583,8.851   c-2.48,1.877-6.201,2.816-11.3,2.816h-6.201v11.664h-5.788V-9.283h11.713C200.994-9.283,204.99-8.21,207.195-6.333z M203.061,7.346   c1.24-1.207,1.791-2.95,1.791-5.23s-0.689-3.889-2.205-4.962c-1.378-0.939-3.721-1.341-6.89-1.341h-5.926v13.41h6.752   C199.892,9.089,201.959,8.553,203.061,7.346z"/>
</g>
<g>
	<linearGradient id="SVGID_6_" gradientUnits="userSpaceOnUse" x1="222.6724" y1="27.583" x2="243.0294" y2="-7.6763">
		<stop offset="0" style="stop-color:#00A551"/>
		<stop offset="0.2415" style="stop-color:#00A885"/>
		<stop offset="0.4831" style="stop-color:#00AAB2"/>
		<stop offset="0.6987" style="stop-color:#00ACD3"/>
		<stop offset="0.8783" style="stop-color:#00ADE7"/>
		<stop offset="1" style="stop-color:#00ADEE"/>
	</linearGradient>
	<path class="st7" d="M248.139,1.016c0,5.112-3.985,7.482-8.532,8.827l8.268,16.001l-6.396-0.025l-8.842-15.169h-6.121v15.333   h-6.615V-9.529h13.091c4.685,0,9.256,0.99,11.185,2.604C246.244-5.31,248.139-2.348,248.139,1.016z M239.331,4.596   c1.102-0.807,1.654-2.287,1.654-4.439c0-1.883-0.689-3.363-1.791-4.17c-1.102-0.807-3.169-1.076-5.788-1.076h-6.752V5.807h6.615   C236.161,5.942,238.228,5.538,239.331,4.596z"/>
</g>
<g>
	<path class="st2" d="M172.035-8.945c-2.067,0.276-3.617,0.74-3.617,0.74l-8.011,20.048l-3.944,11.502l0.638,2.626l0.735,0.011   h0.431h0.947l0.532-2.118l17.009-32.876C176.756-9.011,174.24-9.221,172.035-8.945z"/>
	<linearGradient id="SVGID_7_" gradientUnits="userSpaceOnUse" x1="156.9315" y1="24.7845" x2="176.3951" y2="-8.9274">
		<stop offset="0" style="stop-color:#00A551"/>
		<stop offset="0.1742" style="stop-color:#00A667"/>
		<stop offset="0.5363" style="stop-color:#00A99E"/>
		<stop offset="1" style="stop-color:#00ADEE"/>
	</linearGradient>
	<path class="st8" d="M172.217-7.54l-2.456,1.158l-7.628,18.512l-4.292,11.359l1.166,2.493h0.856l0.825,0l0.208-0.011l1.619-1.914   l14.056-32.883C176.571-8.826,174.422-7.816,172.217-7.54z"/>
	<linearGradient id="SVGID_8_" gradientUnits="userSpaceOnUse" x1="143.9799" y1="13.5075" x2="155.2979" y2="-6.0958">
		<stop offset="0" style="stop-color:#00A551"/>
		<stop offset="0.2415" style="stop-color:#00A885"/>
		<stop offset="0.4831" style="stop-color:#00AAB2"/>
		<stop offset="0.6987" style="stop-color:#00ACD3"/>
		<stop offset="0.8783" style="stop-color:#00ADE7"/>
		<stop offset="1" style="stop-color:#00ADEE"/>
	</linearGradient>
	<path class="st9" d="M157.688,12.345L151.98-8.012c0,0-3.442-1.858-6.344-2.089c-1.833-0.146-3.26,0.351-3.26,0.351l12.879,29.767   L157.688,12.345z"/>
</g>
<g>
	<path class="st1" d="M144.459-8.961c0,0,2.699-0.71,4.546-0.284c2.131,0.568,3.125,1.278,3.125,1.278l6.676,19.46l-3.551,8.523   L144.459-8.961z"/>
	<path class="st1" d="M157.101,24.846l0.284,1.136h6.392l14.631-34.802c0,0-2.557-0.284-4.83,0   c-2.131,0.284-2.983,1.278-2.983,1.278L157.101,24.846z"/>
</g>
<g>
	<path class="st1" d="M210.136-6.262c2.415,1.989,3.693,5.256,3.693,9.517s-1.278,7.528-3.693,9.375   c-2.557,1.989-6.392,2.983-11.648,2.983h-6.392v10.369h-5.966v-35.37h12.074C203.744-9.387,207.863-8.251,210.136-6.262z    M205.875,8.227c1.278-1.278,1.847-3.125,1.847-5.54s-0.71-4.119-2.273-5.256c-1.42-0.994-3.835-1.42-7.102-1.42h-6.108v14.205   h6.96C202.607,10.074,204.738,9.505,205.875,8.227z"/>
</g>
<g>
	<path class="st1" d="M247.924,0.84c0,5.398-2.273,8.665-6.96,10.085l8.523,14.915h-6.96l-7.955-14.063h-7.102v14.205h-5.398V-9.529   h12.074c4.83,0,8.523,0.71,10.511,2.415C246.787-5.41,247.924-2.711,247.924,0.84z M240.679,5.386   c1.136-0.852,1.705-2.415,1.705-4.688c0-1.989-0.71-3.551-1.847-4.403s-3.267-1.136-5.966-1.136h-6.96V6.664h6.818   C237.412,6.806,239.543,6.38,240.679,5.386z"/>
</g>
<g class="st10">
	<path class="st11" d="M121.887,22.427c1.937,0,3.735-0.271,5.119-0.95c1.383-0.678,2.905-1.764,4.427-3.12l3.735,3.663   c-3.597,3.934-8.024,5.969-13.28,5.969c-5.119,0-9.545-1.628-12.865-4.884c-3.32-3.256-5.119-7.461-5.119-12.481   s1.798-9.089,5.257-12.481c3.458-3.256,7.885-5.02,13.28-5.02c5.395,0,10.609,1.322,14.067,5.256l-4.119,4.403   c-1.66-1.492-3.585-2.468-4.968-3.147s-3.182-0.95-5.119-0.95c-3.458,0-6.364,1.085-8.715,3.256   c-2.352,2.171-3.458,5.02-3.458,8.411c0,3.256,1.245,6.24,3.458,8.547C115.8,21.342,118.567,22.427,121.887,22.427z"/>
</g>
<g>
	<path class="st11" d="M121.78,21.727c2.197,0,4.238-0.305,5.808-1.069c1.57-0.764,4.534-2.547,6.261-4.075l4.311,3.982   c-4.081,4.429-10.414,7.424-16.379,7.424c-5.808,0-10.83-1.833-14.597-5.499c-3.767-3.666-5.808-8.401-5.808-14.052   s2.13-10.787,6.054-14.606c3.924-3.666,8.858-5.097,14.979-5.097c6.122,0,11.885,3.368,15.664,7.962l-3.769,3.984   c-1.884-1.68-4.675-3.851-6.244-4.615c-1.57-0.764-3.61-1.069-5.808-1.069c-3.924,0-7.22,1.222-9.889,3.666   c-2.668,2.444-3.924,5.651-3.924,9.47c0,3.666,1.413,7.026,3.924,9.622C114.874,20.505,118.013,21.727,121.78,21.727z"/>
</g>
<g class="st12">
	<linearGradient id="SVGID_9_" gradientUnits="userSpaceOnUse" x1="110.8371" y1="22.5871" x2="129.5789" y2="-9.8747">
		<stop offset="0" style="stop-color:#0097B0"/>
		<stop offset="0.1881" style="stop-color:#008543"/>
		<stop offset="0.2221" style="stop-color:#00895F"/>
		<stop offset="0.2691" style="stop-color:#008E7E"/>
		<stop offset="0.3223" style="stop-color:#00939A"/>
		<stop offset="0.3825" style="stop-color:#0096B0"/>
		<stop offset="0.4528" style="stop-color:#0099C1"/>
		<stop offset="0.5397" style="stop-color:#009BCC"/>
		<stop offset="0.6616" style="stop-color:#009CD3"/>
		<stop offset="1" style="stop-color:#009CD5"/>
	</linearGradient>
	<path class="st13" d="M121.953,19.882c2.007,0,3.87-0.29,5.304-1.014c1.433-0.724,1.556-0.587,3.133-2.036l3.424-0.487   c-3.727,4.201-6.414,9.477-11.861,9.477c-5.304,0-9.891-1.738-13.331-5.215c-3.44-3.477-5.304-7.967-5.304-13.327   s1.864-9.706,5.447-13.327c3.584-3.477,8.171-5.36,13.761-5.36c5.779,0,12.097,3.862,15.546,8.106l-3.487,3.982   c-1.72-1.593-5.464-4.411-6.898-5.135c-1.433-0.724-3.297-1.014-5.304-1.014c-3.584,0-6.594,1.159-9.031,3.477   c-2.437,2.318-3.584,5.36-3.584,8.982c0,3.477,1.29,6.664,3.584,9.126C115.646,18.723,118.513,19.882,121.953,19.882z"/>
</g>
<g class="st12">
	<linearGradient id="SVGID_10_" gradientUnits="userSpaceOnUse" x1="105.25" y1="8.6654" x2="138.0735" y2="8.6654">
		<stop offset="0" style="stop-color:#EA2127"/>
		<stop offset="1" style="stop-color:#E80A89"/>
	</linearGradient>
	<path class="st14" d="M125.186,21.373c2.171,0,4.187-0.27,5.738-0.945c1.551-0.675,1.496-1.704,3.201-3.054l3.399,2.593   c-4.032,3.914-7.904,6.903-13.797,6.903c-5.738,0-9.241-1.584-12.963-4.823c-3.722-3.239-5.514-7.471-5.514-12.465   s1.123-10.293,5-13.667c3.877-3.239,6.415-5.289,12.461-5.448c7.063-0.185,11.485,2.315,15.362,6.229c0,0-2.396,1.717-3.022,2.245   c-0.56-0.37-0.688,1.739-0.688,1.739c-1.005-0.77-2.739-2.057-4.514-2.497c-2.423-0.6-4.231-0.57-6.691-0.061   c-2.285,0.473-4.261,1.608-5.954,2.995c-2.636,2.159-3.877,4.994-3.877,8.368c0,3.239,1.396,6.208,3.877,8.503   C119.686,20.42,121.464,21.373,125.186,21.373z"/>
</g>
<g>
	<path d="M124.335,20.466c1.923,0,3.709-0.275,5.083-0.962c1.374-0.687,2.885-1.786,4.396-3.16l3.709,3.709   c-3.572,3.984-7.969,6.045-13.189,6.045c-5.083,0-9.48-1.649-12.777-4.946c-3.297-3.297-5.083-7.556-5.083-12.64   s1.786-9.205,5.221-12.64c3.435-3.297,7.831-5.083,13.189-5.083c5.358,0,9.755,1.923,13.189,5.908l-3.709,3.984   c-1.649-1.511-3.16-2.61-4.534-3.297c-1.374-0.687-3.16-0.962-5.083-0.962c-3.435,0-6.32,1.099-8.655,3.297   s-3.435,5.083-3.435,8.518c0,3.297,1.236,6.32,3.435,8.655C118.29,19.367,121.037,20.466,124.335,20.466z"/>
</g>
</svg>